<svg width="90" height="20" viewBox="0 0 90 20" fill="none" xmlns="http://www.w3.org/2000/svg">
<path d="M14.4827 10.399L11.0802 10.3891L7.6778 10.3791L7.68276 8.67793L11.0852 8.68785L14.4876 8.69778L14.4951 6.14596L18.7382 9.5608L14.4752 12.9508L14.4827 10.399ZM15.3507 4.44722L13.0472 4.4405C12.0675 3.57143 10.8579 3.00349 9.56349 2.80485C8.26906 2.60621 6.9448 2.7853 5.74963 3.32063C4.55446 3.85596 3.53914 4.72478 2.82551 5.82285C2.11188 6.92092 1.73026 8.20158 1.72644 9.51116C1.72262 10.8207 2.09676 12.1036 2.80397 13.2058C3.51118 14.308 4.52141 15.1828 5.71343 15.7251C6.90546 16.2674 8.22865 16.4542 9.52422 16.2631C10.8198 16.072 12.0327 15.5111 13.0174 14.6478L15.3209 14.6545C14.5259 15.7091 13.4961 16.5639 12.3132 17.1511C11.1302 17.7383 9.82671 18.0416 8.50607 18.0371C3.80816 18.0234 0.0110921 14.2041 0.0248007 9.5062C0.0385092 4.80828 3.8578 1.01122 8.55571 1.02493C9.87636 1.02812 11.1781 1.33908 12.3576 1.93314C13.5371 2.5272 14.5619 3.388 15.3507 4.44722Z" fill="#11573F"/>
<path d="M27.0114 15V3.36364H29.4716V12.9716H34.4602V15H27.0114ZM39.9872 15.1705C39.1046 15.1705 38.3414 14.983 37.6974 14.608C37.0573 14.2292 36.563 13.7027 36.2145 13.0284C35.866 12.3504 35.6918 11.5644 35.6918 10.6705C35.6918 9.76894 35.866 8.98106 36.2145 8.30682C36.563 7.62879 37.0573 7.10227 37.6974 6.72727C38.3414 6.34848 39.1046 6.15909 39.9872 6.15909C40.8698 6.15909 41.6312 6.34848 42.2713 6.72727C42.9152 7.10227 43.4115 7.62879 43.7599 8.30682C44.1084 8.98106 44.2827 9.76894 44.2827 10.6705C44.2827 11.5644 44.1084 12.3504 43.7599 13.0284C43.4115 13.7027 42.9152 14.2292 42.2713 14.608C41.6312 14.983 40.8698 15.1705 39.9872 15.1705ZM39.9986 13.2955C40.4001 13.2955 40.7353 13.1818 41.0043 12.9545C41.2732 12.7235 41.4759 12.4091 41.6122 12.0114C41.7524 11.6136 41.8224 11.161 41.8224 10.6534C41.8224 10.1458 41.7524 9.69318 41.6122 9.29545C41.4759 8.89773 41.2732 8.58333 41.0043 8.35227C40.7353 8.12121 40.4001 8.00568 39.9986 8.00568C39.5933 8.00568 39.2524 8.12121 38.9759 8.35227C38.7031 8.58333 38.4967 8.89773 38.3565 9.29545C38.2202 9.69318 38.152 10.1458 38.152 10.6534C38.152 11.161 38.2202 11.6136 38.3565 12.0114C38.4967 12.4091 38.7031 12.7235 38.9759 12.9545C39.2524 13.1818 39.5933 13.2955 39.9986 13.2955ZM49.7884 18.4545C49.0043 18.4545 48.3319 18.3466 47.7713 18.1307C47.2145 17.9186 46.7713 17.6288 46.4418 17.2614C46.1122 16.8939 45.8982 16.4811 45.7997 16.0227L48.0384 15.7216C48.1065 15.8958 48.2145 16.0587 48.3622 16.2102C48.5099 16.3617 48.705 16.483 48.9474 16.5739C49.1937 16.6686 49.4929 16.7159 49.8452 16.7159C50.3717 16.7159 50.8054 16.5871 51.1463 16.3295C51.491 16.0758 51.6634 15.6496 51.6634 15.0511V13.4545H51.5611C51.455 13.697 51.2959 13.9261 51.0838 14.142C50.8717 14.358 50.599 14.5341 50.2656 14.6705C49.9323 14.8068 49.5346 14.875 49.0724 14.875C48.4171 14.875 47.8205 14.7235 47.2827 14.4205C46.7486 14.1136 46.3224 13.6458 46.0043 13.017C45.6899 12.3845 45.5327 11.5852 45.5327 10.6193C45.5327 9.63068 45.6937 8.80492 46.0156 8.14205C46.3376 7.47917 46.7656 6.98295 47.2997 6.65341C47.8376 6.32386 48.4266 6.15909 49.0668 6.15909C49.5554 6.15909 49.9645 6.24242 50.294 6.40909C50.6236 6.57197 50.8887 6.77652 51.0895 7.02273C51.294 7.26515 51.4512 7.50379 51.5611 7.73864H51.652V6.27273H54.0554V15.0852C54.0554 15.8277 53.8736 16.4489 53.5099 16.9489C53.1463 17.4489 52.6425 17.8239 51.9986 18.0739C51.3584 18.3277 50.6217 18.4545 49.7884 18.4545ZM49.8395 13.0568C50.2296 13.0568 50.5592 12.9602 50.8281 12.767C51.1009 12.5701 51.3092 12.2898 51.4531 11.9261C51.6009 11.5587 51.6747 11.1193 51.6747 10.608C51.6747 10.0966 51.6027 9.65341 51.4588 9.27841C51.3149 8.89962 51.1065 8.60606 50.8338 8.39773C50.5611 8.18939 50.2296 8.08523 49.8395 8.08523C49.4418 8.08523 49.1065 8.19318 48.8338 8.40909C48.5611 8.62121 48.3546 8.91667 48.2145 9.29545C48.0743 9.67424 48.0043 10.1117 48.0043 10.608C48.0043 11.1117 48.0743 11.5473 48.2145 11.9148C48.3584 12.2784 48.5649 12.5606 48.8338 12.7614C49.1065 12.9583 49.4418 13.0568 49.8395 13.0568ZM59.9247 15.1705C59.0421 15.1705 58.2789 14.983 57.6349 14.608C56.9948 14.2292 56.5005 13.7027 56.152 13.0284C55.8035 12.3504 55.6293 11.5644 55.6293 10.6705C55.6293 9.76894 55.8035 8.98106 56.152 8.30682C56.5005 7.62879 56.9948 7.10227 57.6349 6.72727C58.2789 6.34848 59.0421 6.15909 59.9247 6.15909C60.8073 6.15909 61.5687 6.34848 62.2088 6.72727C62.8527 7.10227 63.349 7.62879 63.6974 8.30682C64.0459 8.98106 64.2202 9.76894 64.2202 10.6705C64.2202 11.5644 64.0459 12.3504 63.6974 13.0284C63.349 13.7027 62.8527 14.2292 62.2088 14.608C61.5687 14.983 60.8073 15.1705 59.9247 15.1705ZM59.9361 13.2955C60.3376 13.2955 60.6728 13.1818 60.9418 12.9545C61.2107 12.7235 61.4134 12.4091 61.5497 12.0114C61.6899 11.6136 61.7599 11.161 61.7599 10.6534C61.7599 10.1458 61.6899 9.69318 61.5497 9.29545C61.4134 8.89773 61.2107 8.58333 60.9418 8.35227C60.6728 8.12121 60.3376 8.00568 59.9361 8.00568C59.5308 8.00568 59.1899 8.12121 58.9134 8.35227C58.6406 8.58333 58.4342 8.89773 58.294 9.29545C58.1577 9.69318 58.0895 10.1458 58.0895 10.6534C58.0895 11.161 58.1577 11.6136 58.294 12.0114C58.4342 12.4091 58.6406 12.7235 58.9134 12.9545C59.1899 13.1818 59.5308 13.2955 59.9361 13.2955ZM71.3906 11.2841V6.27273H73.8111V15H71.4872V13.4148H71.3963C71.1993 13.9261 70.8717 14.3371 70.4134 14.6477C69.9588 14.9583 69.4039 15.1136 68.7486 15.1136C68.1652 15.1136 67.652 14.9811 67.2088 14.7159C66.7656 14.4508 66.419 14.0739 66.169 13.5852C65.9228 13.0966 65.7978 12.5114 65.794 11.8295V6.27273H68.2145V11.3977C68.2183 11.9129 68.3565 12.3201 68.6293 12.6193C68.902 12.9186 69.2675 13.0682 69.7259 13.0682C70.0175 13.0682 70.2902 13.0019 70.544 12.8693C70.7978 12.733 71.0024 12.5322 71.1577 12.267C71.3168 12.0019 71.3944 11.6742 71.3906 11.2841ZM80.3892 6.27273V8.09091H75.1335V6.27273H80.3892ZM76.3267 4.18182H78.7472V12.3182C78.7472 12.5417 78.7813 12.7159 78.8494 12.8409C78.9176 12.9621 79.0123 13.0473 79.1335 13.0966C79.2585 13.1458 79.4025 13.1705 79.5653 13.1705C79.679 13.1705 79.7926 13.161 79.9062 13.142C80.0199 13.1193 80.107 13.1023 80.1676 13.0909L80.5483 14.892C80.4271 14.9299 80.2566 14.9735 80.0369 15.0227C79.8172 15.0758 79.5502 15.108 79.2358 15.1193C78.6525 15.142 78.1411 15.0644 77.7017 14.8864C77.2661 14.7083 76.9271 14.4318 76.6847 14.0568C76.4422 13.6818 76.3229 13.2083 76.3267 12.6364V4.18182Z" fill="#11573F"/>
</svg>
