<svg width="44" height="44" viewBox="0 0 44 44" fill="none" xmlns="http://www.w3.org/2000/svg">
<path d="M5.5 20.1667C5.5 13.2532 5.5 9.7955 7.64867 7.64867C9.79733 5.50183 13.2532 5.5 20.1667 5.5H23.8333C30.7468 5.5 34.2045 5.5 36.3513 7.64867C38.4982 9.79733 38.5 13.2532 38.5 20.1667V23.8333C38.5 30.7468 38.5 34.2045 36.3513 36.3513C34.2027 38.4982 30.7468 38.5 23.8333 38.5H20.1667C13.2532 38.5 9.7955 38.5 7.64867 36.3513C5.50183 34.2027 5.5 30.7468 5.5 23.8333V20.1667Z" stroke="black"/>
<path d="M30.25 16.5C31.7688 16.5 33 15.2688 33 13.75C33 12.2312 31.7688 11 30.25 11C28.7312 11 27.5 12.2312 27.5 13.75C27.5 15.2688 28.7312 16.5 30.25 16.5Z" fill="black"/>
<path d="M21.9997 28.4166C25.5435 28.4166 28.4163 25.5438 28.4163 22C28.4163 18.4562 25.5435 15.5833 21.9997 15.5833C18.4558 15.5833 15.583 18.4562 15.583 22C15.583 25.5438 18.4558 28.4166 21.9997 28.4166Z" stroke="black"/>
</svg>
