<svg width="19" height="18" viewBox="0 0 19 18" fill="none" xmlns="http://www.w3.org/2000/svg">
<path d="M14.4827 9.399L11.0802 9.38907L7.6778 9.37914L7.68276 7.67793L11.0852 7.68785L14.4876 7.69778L14.4951 5.14596L18.7382 8.5608L14.4752 11.9508L14.4827 9.399ZM15.3507 3.44722L13.0472 3.4405C12.0675 2.57143 10.8579 2.00349 9.56349 1.80485C8.26906 1.60621 6.9448 1.7853 5.74963 2.32063C4.55446 2.85596 3.53914 3.72478 2.82551 4.82285C2.11188 5.92092 1.73026 7.20158 1.72644 8.51116C1.72262 9.82074 2.09676 11.1036 2.80397 12.2058C3.51118 13.308 4.52141 14.1828 5.71343 14.7251C6.90546 15.2674 8.22865 15.4542 9.52422 15.2631C10.8198 15.072 12.0327 14.5111 13.0174 13.6478L15.3209 13.6545C14.5259 14.7091 13.4961 15.5639 12.3132 16.1511C11.1302 16.7383 9.82671 17.0416 8.50607 17.0371C3.80816 17.0234 0.0110921 13.2041 0.0248007 8.5062C0.0385092 3.80828 3.8578 0.0112171 8.55571 0.0249257C9.87636 0.0281183 11.1781 0.339082 12.3576 0.933139C13.5371 1.5272 14.5619 2.388 15.3507 3.44722Z" fill="#11573F"/>
</svg>
