<svg width="36" height="36" viewBox="0 0 36 36" fill="none" xmlns="http://www.w3.org/2000/svg">
<path d="M30.7538 5.23808C29.095 3.57148 27.1194 2.25003 24.9422 1.35075C22.765 0.451461 20.4297 -0.00767368 18.0724 9.7011e-05C8.19497 9.7011e-05 0.144724 8.01008 0.144724 17.838C0.144724 20.988 0.976884 24.048 2.53266 26.748L0 36L9.49749 33.516C12.1206 34.938 15.0693 35.694 18.0724 35.694C27.9497 35.694 36 27.684 36 17.8561C36 13.0861 34.1367 8.60407 30.7538 5.23808ZM18.0724 32.67C15.395 32.67 12.7719 31.95 10.4744 30.6L9.93166 30.276L4.28744 31.752L5.78894 26.28L5.42714 25.722C3.93928 23.3587 3.14941 20.6267 3.14774 17.838C3.14774 9.66607 9.8412 3.00609 18.0543 3.00609C22.0342 3.00609 25.7789 4.55409 28.5829 7.36208C29.9716 8.73703 31.072 10.3726 31.8204 12.1741C32.5688 13.9755 32.9503 15.9068 32.9427 17.8561C32.9789 26.028 26.2854 32.67 18.0724 32.67ZM26.2492 21.582C25.797 21.366 23.5899 20.286 23.192 20.124C22.7759 19.98 22.4864 19.908 22.1789 20.34C21.8714 20.79 21.0211 21.798 20.7678 22.086C20.5146 22.392 20.2432 22.428 19.791 22.194C19.3387 21.978 17.8915 21.492 16.191 19.98C14.8523 18.792 13.9658 17.3341 13.6945 16.8841C13.4412 16.4341 13.6583 16.2001 13.8935 15.9661C14.0925 15.7681 14.3457 15.4441 14.5628 15.1921C14.7799 14.9401 14.8704 14.7421 15.0151 14.4541C15.1598 14.1481 15.0874 13.8961 14.9789 13.6801C14.8704 13.4641 13.9658 11.2681 13.604 10.3681C13.2422 9.50407 12.8623 9.61207 12.591 9.59407H11.7226C11.4151 9.59407 10.9447 9.70207 10.5286 10.1521C10.1307 10.6021 8.97286 11.6821 8.97286 13.8781C8.97286 16.0741 10.5829 18.198 10.8 18.486C11.0171 18.792 13.9658 23.292 18.4523 25.218C19.5196 25.686 20.3518 25.956 21.003 26.154C22.0703 26.496 23.0472 26.442 23.8251 26.334C24.6935 26.208 26.4844 25.254 26.8462 24.21C27.2261 23.166 27.2261 22.284 27.0995 22.086C26.9729 21.888 26.7015 21.798 26.2492 21.582Z" fill="white"/>
</svg>
